<?xml version="1.0" standalone="no"?>
<!DOCTYPE svg PUBLIC "-//W3C//DTD SVG 20010904//EN"
 "http://www.w3.org/TR/2001/REC-SVG-20010904/DTD/svg10.dtd">
<svg version="1.0" xmlns="http://www.w3.org/2000/svg"
 width="260.000000pt" height="260.000000pt" viewBox="0 0 260.000000 260.000000"
 preserveAspectRatio="xMidYMid meet">
<metadata>
Created by potrace 1.11, written by Peter Selinger 2001-2013
</metadata>
<g transform="translate(0.000000,260.000000) scale(0.100000,-0.100000)"
fill="#000000" stroke="none">
<path d="M1178 2435 c-2 -2 -23 -5 -48 -8 -181 -23 -401 -121 -550 -245 -171
-141 -315 -353 -367 -537 -38 -138 -45 -181 -48 -310 -4 -156 4 -219 41 -350
98 -350 379 -646 721 -761 43 -15 83 -27 88 -28 6 -2 37 -9 70 -16 90 -21 350
-19 445 3 299 70 540 230 707 470 70 99 150 272 167 360 2 12 10 45 16 72 26
105 18 376 -13 490 -82 294 -247 526 -488 681 -187 121 -402 183 -631 182 -59
-1 -109 -2 -110 -3z"/>
</g>
</svg>
